# AST/ASF file generated using VICON BodyLanguage
# -----------------------------------------------
:version 1.10
:name VICON
:units
  mass 1.0
  length 0.45
  angle deg
:documentation
   .ast/.asf automatically generated from VICON data using
   VICON BodyBuilder and BodyLanguage model FoxedUp or BRILLIANT.MOD
:root
   order TX TY TZ RX RY RZ
   axis XYZ
   position 0 0 0  
   orientation 0 0 0 
:bonedata
  begin
     id 1 
     name lhipjoint
     direction 0.661853 -0.702389 0.261917 
     length 2.64193 
     axis 0 0 0  XYZ
  end
  begin
     id 2 
     name lfemur
     direction 0.34202 -0.939693 0  
     length 7.01722  
     axis 0 0 20  XYZ
    dof rx ry rz
    limits (-160.0 20.0)
           (-70.0 70.0)
           (-60.0 70.0)
  end
  begin
     id 3 
     name ltibia
     direction 0.34202 -0.939693 0   
     length 8.25008   
     axis 0 0 20   XYZ
    dof rx
    limits (-10.0 170.0)
  end
  begin
     id 4 
     name lfoot
     direction 0.0709916 -0.195048 0.978221   
     length 2.31941   
     axis -90 7.62852e-016 20   XYZ
    dof rx rz
    limits (-45.0 90.0)
           (-70.0 20.0)
  end
  begin
     id 5 
     name ltoes
     direction 1.53586e-011 -4.22017e-011 1   
     length 1.16486   
     axis -90 7.62852e-016 20   XYZ
    dof rx
    limits (-90.0 20.0)
  end
  begin
     id 6 
     name rhipjoint
     direction -0.638185 -0.721362 0.268992   
     length 2.57244  
     axis 0 0 0  XYZ 
  end
  begin
     id 7 
     name rfemur
     direction -0.34202 -0.939693 0   
     length 7.07017   
     axis 0 0 -20   XYZ
    dof rx ry rz
    limits (-160.0 20.0)
           (-70.0 70.0)
           (-70.0 60.0)
  end
  begin
     id 8 
     name rtibia
     direction -0.34202 -0.939693 0   
     length 8.20386   
     axis 0 0 -20   XYZ
    dof rx
    limits (-10.0 170.0)
 end
 begin
     id 9 
     name rfoot
     direction -0.0822429 -0.225961 0.970658   
     length 2.32215  
     axis -90 -7.62852e-016 -20   XYZ
    dof rx rz
    limits (-45.0 90.0)
           (-20.0 70.0)
  end
  begin
     id 10 
     name rtoes
     direction -1.53597e-011 -4.21689e-011 1   
     length 1.16333   
     axis -90 -7.62852e-016 -20   XYZ
    dof rx
    limits (-90.0 20.0)
  end
  begin
     id 11 
     name lowerback
     direction -0.0131557 0.998589 -0.0514484   
     length 2.14993   
     axis 0 0 0   XYZ
    dof rx ry rz
    limits (-20.0 45.0)
           (-30.0 30.0)
           (-30.0 30.0)
  end
  begin
     id 12 
     name upperback
     direction -0.000776481 0.999993 0.00352685   
     length 2.15301   
     axis 0 0 0   XYZ
    dof rx ry rz
    limits (-20.0 45.0)
           (-30.0 30.0)
           (-30.0 30.0)
  end
  begin
     id 13 
     name thorax
     direction 0.00438186 0.999609 0.0276143   
     length 2.15424   
     axis 0 0 0   XYZ
    dof rx ry rz
    limits (-20.0 45.0)
           (-30.0 30.0)
           (-30.0 30.0)
  end
  begin
     id 14 
     name lowerneck
     direction -0.0488006 0.998094 0.0377807   
     length 1.90481   
     axis 0 0 0   XYZ
    dof rx ry rz
    limits (-20.0 45.0)
           (-30.0 30.0)
           (-30.0 30.0)
  end
  begin
     id 15 
     name upperneck
     direction 0.0443769 0.990702 -0.12861   
     length 1.91305   
     axis 0 0 0   XYZ
    dof rx ry rz
    limits (-20.0 45.0)
           (-30.0 30.0)
           (-30.0 30.0)
  end
  begin
     id 16
     name head
     direction 0.0165599 0.998647 -0.0492982  
     length 1.92369  
     axis 0 0 0   XYZ
    dof rx ry rz
    limits (-20.0 45.0)
           (-30.0 30.0)
           (-30.0 30.0)
  end
  begin
     id 17 
     name lclavicle
     direction 0.911936 0.410197 -0.0105506  
     length 3.52622  
     axis 0 0 0   XYZ
    dof ry rz
    limits (-20.0 10.0)
           (0.0 20.0)
  end
  begin
     id 18 
     name lhumerus
     direction 1 -4.48974e-011 -2.48591e-028   
     length 5.47651   
     axis 180 -30 -90   XYZ
    dof rx ry rz
    limits (-60.0 90.0)
           (-90.0 90.0)
           (-90.0 90.0)
  end
  begin
     id 19
     name lradius
     direction 1 -4.48938e-011 -4.40099e-027   
     length 3.09058   
     axis 180 -30 -90   XYZ
    dof rx
    limits (-10.0 170.0)
  end
  begin
     id 20
     name lwrist
     direction 1 -4.49042e-011 -2.99852e-027   
     length 1.54529   
     axis 1.95339e-015 90 90   XYZ
    dof ry
    limits (-180.0 0.0)
 end
  begin
     id 21 
     name lhand
     direction 1 -4.48815e-011 -5.98193e-027   
     length 0.771611   
     axis 3.82337e-015 90 90   XYZ
    dof rx rz
    limits (-90.0 90.0)
           (-45.0 45.0)
  end
  begin
     id 22 
     name lfingers
     direction 1 -4.49034e-011 -1.1993e-026   
     length 0.622093   
     axis 7.64668e-015 90 90   XYZ
    dof rx
    limits (0.0 90.0)
  end
  begin
     id 23
     name lthumb
     direction 0.707107 -6.34867e-011 0.707107   
     length 0.893204   
     axis -90 45 -1.62303e-014   XYZ
    dof rx rz
    limits (-45.0 45.0)
           (-45.0 45.0)
  end
  begin
     id 24 
     name rclavicle
     direction -0.93442 0.355634 -0.0195692   
     length 3.62463  
     axis 0 0 0   XYZ 
    dof ry rz
    limits (-10.0 20.0)
           (-20.0 0.0)
  end
  begin
     id 25 
     name rhumerus
     direction -1 -4.48957e-011 -1.19147e-027  
     length 5.14182   
     axis 180 30 90   XYZ
    dof rx ry rz
    limits (-90.0 60.0)
           (-90.0 90.0)
           (-90.0 90.0)
  end
  begin
     id 26 
     name rradius
     direction -1 -4.48952e-011 -3.81062e-027   
     length 3.35565   
     axis 180 30 90   XYZ
    dof rx
    limits (-10.0 170.0)
  end
  begin
     id 27 
     name rwrist
     direction -1 -4.48973e-011 -2.99621e-027   
     length 1.67782   
     axis 1.95339e-015 -90 -90   XYZ
    dof ry
    limits (-180.0 0.0)
  end
  begin
     id 28
     name rhand
     direction -1 -4.48895e-011 -5.98727e-027   
     length 0.801042   
     axis 3.82337e-015 -90 -90   XYZ
    dof rx rz
    limits (-90.0 90.0)
           (-45.0 45.0)
  end
  begin
     id 29
     name rfingers
     direction -1 -4.49065e-011 -1.19972e-026   
     length 0.645821   
     axis 7.64668e-015 -90 -90   XYZ
    dof rx
    limits (0.0 90.0)
  end
  begin
     id 30
     name rthumb
     direction -0.707107 -6.34957e-011 0.707107   
     length 0.927273   
     axis -90 -45 1.62303e-014   XYZ
    dof rx rz
    limits (-45.0 45.0)
           (-45.0 45.0)
  end
:hierarchy
  begin
    root lhipjoint rhipjoint lowerback
    lhipjoint lfemur
    lfemur ltibia
    ltibia lfoot
    lfoot ltoes
    rhipjoint rfemur
    rfemur rtibia
    rtibia rfoot
    rfoot rtoes
    lowerback upperback
    upperback thorax
    thorax lowerneck lclavicle rclavicle
    lowerneck upperneck
    upperneck head
    lclavicle lhumerus
    lhumerus lradius
    lradius lwrist
    lwrist lhand lthumb
    lhand lfingers
    rclavicle rhumerus
    rhumerus rradius
    rradius rwrist
    rwrist rhand rthumb
    rhand rfingers
  end

#!OML:ASF E:\Style4\Style4.ASF
:FULLY-SPECIFIED
:DEGREES
98
root -0.289067 18.1027 -1.57256 0.778159 0.314879 1.15319
lowerback 3.6125 1.75183 -0.0120444
upperback 1.04448 2.33587 0.204448
thorax -0.961405 1.16693 0.113904
lowerneck -6.39451 -5.2147 -6.49428
upperneck 16.7158 -6.84804 3.34476
head 6.47454 -3.45709 1.6084
rclavicle 1.34428e-014 1.76918e-014
rhumerus -49.2891 23.4628 -99.0989
rradius 88.9414
rwrist -20.6011
rhand -25.6058 31.6442
rfingers 7.12502
rthumb 0.926464 1.66646
lclavicle 1.34428e-014 1.76918e-014
lhumerus -50.422 -31.7226 103.437
lradius 94.3466
lwrist 11.6763
lhand -14.3285 20.9696
lfingers 7.12502
lthumb 11.8124 50.6164
rfemur -4.70176 3.52703 18.4739
rtibia 18.851
rfoot -13.7797 -17.6022
rtoes -11.5347
lfemur -2.82222 -6.45285 -19.5381
ltibia 16.5192
lfoot -14.7741 11.7386
ltoes -15.7007
99
root -0.288862 18.1022 -1.57152 0.748402 0.303425 1.05724
lowerback 3.64016 1.75602 0.0825201
upperback 1.06685 2.34513 0.230961
thorax -0.951278 1.17147 0.087326
lowerneck -6.42864 -5.22146 -6.45811
upperneck 16.6924 -6.85221 3.30421
head 6.47053 -3.45948 1.58859
rclavicle -1.56543e-014 1.98785e-016
rhumerus -49.241 23.4885 -99.0893
rradius 88.9268
rwrist -20.6549
rhand -25.6429 31.7046
rfingers 7.12502
rthumb 0.890688 1.72667
lclavicle -1.56543e-014 1.98785e-016
lhumerus -50.4032 -31.7547 103.418
lradius 94.398
lwrist 11.7129
lhand -14.2943 21.0304
lfingers 7.12502
lthumb 11.8454 50.6753
rfemur -4.68616 3.53083 18.5829
rtibia 18.9043
rfoot -13.8646 -17.5744
rtoes -11.3392
lfemur -2.7697 -6.4117 -19.4333
ltibia 16.5064
lfoot -14.7928 11.6744
ltoes -15.5746
100
root -0.288883 18.1026 -1.57056 0.77784 0.285103 1.08845
lowerback 3.62754 1.76706 0.0411136
upperback 1.05225 2.35836 0.230333
thorax -0.960847 1.17811 0.109351
lowerneck -6.47702 -5.22733 -6.45954
upperneck 16.7525 -6.8564 3.29129
head 6.49799 -3.46208 1.58258
rclavicle -4.19684e-014 2.5842e-015
rhumerus -49.2374 23.4639 -99.0809
rradius 88.8845
rwrist -20.7338
rhand -25.5493 31.7194
rfingers 7.12502
rthumb 0.981 1.74196
lclavicle -4.19684e-014 2.5842e-015
lhumerus -50.3951 -31.8213 103.443
lradius 94.4164
lwrist 11.7946
lhand -14.2776 20.9077
lfingers 7.12502
lthumb 11.8614 50.5517
rfemur -4.76212 3.52867 18.5437
rtibia 18.9963
rfoot -13.8987 -17.5693
rtoes -11.353
lfemur -2.77242 -6.3948 -19.4661
ltibia 16.463
lfoot -14.7771 11.6744
ltoes -15.7149
101
root -0.289595 18.1032 -1.56875 0.770357 0.267344 1.11894
lowerback 3.62168 1.76841 -0.0035878
upperback 1.06328 2.3585 0.230508
thorax -0.948082 1.17822 0.134917
lowerneck -6.48512 -5.21896 -6.49174
upperneck 16.7313 -6.84452 3.31932
head 6.49416 -3.45605 1.59763
rclavicle -1.53313e-014 1.17283e-014
rhumerus -49.2257 23.4926 -99.0791
rradius 88.8334
rwrist -20.7666
rhand -25.4869 31.8048
rfingers 7.12502
rthumb 1.04129 1.82764
lclavicle -1.53313e-014 1.17283e-014
lhumerus -50.3722 -31.8526 103.439
lradius 94.4379
lwrist 11.9235
lhand -14.204 20.7877
lfingers 7.12502
lthumb 11.9324 50.4277
rfemur -4.75612 3.52397 18.5123
rtibia 19.0587
rfoot -14.0084 -17.4718
rtoes -10.6965
lfemur -2.74898 -6.36348 -19.4982
ltibia 16.4475
lfoot -14.7694 11.6878
ltoes -15.7774
102
root -0.289363 18.1051 -1.56451 0.695556 0.257481 1.08621
lowerback 3.66984 1.77902 0.0325434
upperback 1.09286 2.37401 0.239363
thorax -0.943635 1.18592 0.122077
lowerneck -6.52869 -5.22703 -6.5105
upperneck 16.7595 -6.85477 3.34056
head 6.51271 -3.46003 1.60515
rclavicle -4.05769e-014 -1.59028e-014
rhumerus -49.2203 23.4775 -99.0751
rradius 88.7753
rwrist -20.7833
rhand -25.5661 31.844
rfingers 7.12502
rthumb 0.964778 1.86646
lclavicle -4.05769e-014 -1.59028e-014
lhumerus -50.3723 -31.9325 103.447
lradius 94.4913
lwrist 12.0273
lhand -14.1169 20.8053
lfingers 7.12502
lthumb 12.0164 50.4403
rfemur -4.61886 3.51054 18.5624
rtibia 19.0836
rfoot -14.1466 -17.3204
rtoes -9.70148
lfemur -2.65481 -6.38258 -19.4819
ltibia 16.4567
lfoot -14.7627 11.7756
ltoes -16.1166
103
root -0.287182 18.1038 -1.56232 0.632135 0.287403 1.08569
lowerback 3.72129 1.76619 0.0611
upperback 1.11967 2.35795 0.238212
thorax -0.943654 1.17787 0.104462
lowerneck -6.585 -5.24119 -6.55347
upperneck 16.8019 -6.87301 3.38028
head 6.53999 -3.46782 1.6213
rclavicle -1.46852e-014 1.63003e-014
rhumerus -49.2172 23.4752 -99.0768
rradius 88.752
rwrist -20.8232
rhand -25.565 31.646
rfingers 7.12502
rthumb 0.965928 1.66842
lclavicle -1.46852e-014 1.63003e-014
lhumerus -50.3583 -31.9563 103.452
lradius 94.5244
lwrist 12.077
lhand -14.0856 20.7059
lfingers 7.12502
lthumb 12.0466 50.3392
rfemur -4.50967 3.45819 18.5547
rtibia 19.0328
rfoot -14.1259 -17.3027
rtoes -9.57407
lfemur -2.63666 -6.40819 -19.5
ltibia 16.5643
lfoot -14.7942 11.7816
ltoes -16.1817
104
root -0.288246 18.0998 -1.56345 0.619603 0.280464 1.05505
lowerback 3.75809 1.76279 0.0455076
upperback 1.11045 2.35329 0.269777
thorax -0.975608 1.1755 0.14421
lowerneck -6.548 -5.23384 -6.5384
upperneck 16.7576 -6.85919 3.34019
head 6.51679 -3.46368 1.60862
rclavicle 1.76421e-014 -2.06736e-014
rhumerus -49.2579 23.525 -99.0922
rradius 88.6981
rwrist -20.8422
rhand -25.5699 31.5837
rfingers 7.12502
rthumb 0.961189 1.60613
lclavicle 1.76421e-014 -2.06736e-014
lhumerus -50.3819 -32.0225 103.492
lradius 94.5853
lwrist 12.2436
lhand -14.1063 20.742
lfingers 7.12502
lthumb 12.0266 50.3765
rfemur -4.50456 3.55608 18.592
rtibia 18.9325
rfoot -13.952 -17.5154
rtoes -10.6699
lfemur -2.7218 -6.38634 -19.4587
ltibia 16.7366
lfoot -14.8775 11.757
ltoes -16.0516
105
root -0.291173 18.098 -1.56783 0.644418 0.251825 0.870761
lowerback 3.79608 1.78357 0.172728
upperback 1.08861 2.38674 0.338373
thorax -1.01704 1.19203 0.140032
lowerneck -6.56084 -5.24615 -6.527
upperneck 16.7529 -6.87488 3.33041
head 6.51761 -3.47109 1.60202
rclavicle 1.01629e-014 -3.57812e-015
rhumerus -49.2821 23.5581 -99.0887
rradius 88.6892
rwrist -20.8343
rhand -25.6123 31.4998
rfingers 7.12502
rthumb 0.920245 1.52203
lclavicle 1.01629e-014 -3.57812e-015
lhumerus -50.3562 -32.192 103.526
lradius 94.6106
lwrist 12.4506
lhand -14.1234 20.6273
lfingers 7.12502
lthumb 12.0101 50.2627
rfemur -4.5118 3.70757 18.8182
rtibia 18.804
rfoot -13.8259 -17.6742
rtoes -11.1103
lfemur -2.88623 -6.32394 -19.2257
ltibia 16.9436
lfoot -14.9548 11.689
ltoes -15.9743
106
root -0.293091 18.0988 -1.57046 0.715905 0.234957 0.752795
lowerback 3.80208 1.80194 0.262146
upperback 1.04126 2.41517 0.363069
thorax -1.06634 1.20604 0.112837
lowerneck -6.55139 -5.24732 -6.49418
upperneck 16.7206 -6.88198 3.33882
head 6.505 -3.47192 1.59932
rclavicle -8.24956e-015 3.18055e-015
rhumerus -49.3092 23.6123 -99.1286
rradius 88.6347
rwrist -20.7767
rhand -25.7282 31.4088
rfingers 7.12502
rthumb 0.808243 1.43054
lclavicle -8.24956e-015 3.18055e-015
lhumerus -50.2844 -32.3323 103.518
lradius 94.6212
lwrist 12.6205
lhand -13.9777 20.5723
lfingers 7.12502
lthumb 12.1506 50.1994
rfemur -4.5535 3.82745 18.9701
rtibia 18.6917
rfoot -13.738 -17.7865
rtoes -11.116
lfemur -3.07573 -6.31707 -19.0712
ltibia 17.1118
lfoot -15.0299 11.6712
ltoes -15.9559
107
root -0.293044 18.0981 -1.56975 0.724531 0.245362 0.754598
lowerback 3.83537 1.82233 0.260054
upperback 1.02246 2.44225 0.344923
thorax -1.10353 1.21949 0.0926055
lowerneck -6.55296 -5.26006 -6.45204
upperneck 16.6973 -6.90706 3.35553
head 6.49806 -3.4801 1.59586
rclavicle 5.44173e-015 7.55382e-015
rhumerus -49.353 23.6426 -99.1852
rradius 88.5805
rwrist -20.6473
rhand -25.8729 31.4551
rfingers 7.12502
rthumb 0.668521 1.4764
lclavicle 5.44173e-015 7.55382e-015
lhumerus -50.2246 -32.4711 103.486
lradius 94.6268
lwrist 12.6822
lhand -13.8576 20.5128
lfingers 7.12502
lthumb 12.2664 50.133
rfemur -4.52656 3.82366 18.9683
rtibia 18.6211
rfoot -13.7213 -17.7845
rtoes -11.0936
lfemur -3.15218 -6.28359 -19.0671
ltibia 17.2346
lfoot -15.0704 11.6021
ltoes -16.1336
108
root -0.292956 18.0982 -1.56668 0.691035 0.240964 0.784781
lowerback 3.85299 1.83726 0.212471
upperback 1.04027 2.46017 0.335689
thorax -1.09672 1.22853 0.108639
lowerneck -6.56615 -5.26542 -6.41842
upperneck 16.6767 -6.91828 3.36073
head 6.49322 -3.48285 1.59096
rclavicle 4.91992e-015 -1.78906e-014
rhumerus -49.3947 23.7301 -99.2273
rradius 88.5692
rwrist -20.4131
rhand -25.933 31.4312
rfingers 7.12502
rthumb 0.610413 1.45228
lclavicle 4.91992e-015 -1.78906e-014
lhumerus -50.1596 -32.5782 103.451
lradius 94.642
lwrist 12.7078
lhand -13.9835 20.5257
lfingers 7.12502
lthumb 12.145 50.1531
rfemur -4.47183 3.81579 18.9349
rtibia 18.6103
rfoot -13.7505 -17.7717
rtoes -11.0486
lfemur -3.12782 -6.29624 -19.1096
ltibia 17.2785
lfoot -15.0422 11.6093
ltoes -16.1782
109
root -0.29301 18.0978 -1.56522 0.692467 0.257645 0.752679
lowerback 3.8687 1.83102 0.244796
upperback 1.03695 2.45322 0.337933
thorax -1.10763 1.22499 0.092587
lowerneck -6.60204 -5.2655 -6.41769
upperneck 16.6872 -6.91577 3.3562
head 6.5025 -3.48152 1.58856
rclavicle -1.07344e-014 5.36719e-015
rhumerus -49.4477 23.8492 -99.3114
rradius 88.5681
rwrist -20.0403
rhand -25.8552 31.3539
rfingers 7.12502
rthumb 0.685558 1.37524
lclavicle -1.07344e-014 5.36719e-015
lhumerus -50.1089 -32.7528 103.433
lradius 94.6917
lwrist 12.6671
lhand -14.2022 20.5973
lfingers 7.12502
lthumb 11.9342 50.2371
rfemur -4.48355 3.80304 18.9718
rtibia 18.6473
rfoot -13.7396 -17.7844
rtoes -10.9815
lfemur -3.112 -6.35206 -19.0786
ltibia 17.2664
lfoot -15.0887 11.6509
ltoes -15.9623
110
root -0.293266 18.0972 -1.5632 0.721951 0.277892 0.720076
lowerback 3.83281 1.83203 0.260096
upperback 1.03009 2.45516 0.347173
thorax -1.09438 1.22596 0.0945321
lowerneck -6.62426 -5.28217 -6.47002
upperneck 16.6998 -6.93969 3.4084
head 6.51542 -3.49201 1.61083
rclavicle 5.91384e-015 -3.97569e-016
rhumerus -49.5342 24.0356 -99.3988
rradius 88.5718
rwrist -19.5341
rhand -25.733 31.2368
rfingers 7.12502
rthumb 0.803613 1.25855
lclavicle 5.91384e-015 -3.97569e-016
lhumerus -49.983 -33.0506 103.442
lradius 94.6637
lwrist 12.6483
lhand -14.55 20.9247
lfingers 7.12502
lthumb 11.5988 50.5837
rfemur -4.56006 3.7523 19.0039
rtibia 18.7502
rfoot -13.7943 -17.7638
rtoes -11.0088
lfemur -3.10909 -6.40512 -19.0384
ltibia 17.208
lfoot -15.1256 11.6818
ltoes -15.659
